<svg xmlns="http://www.w3.org/2000/svg" viewBox="0 0 128 128" role="img" aria-label="Riotous Audio"><path d="M57.217,54.889 L60.647,55.383 L62.992,57.159 L65.348,58.936 L67.088,62.293 L75.492,78.335 L81.39,78.335 L81.39,82.999 L62.461,82.999 L53.28,65.612 L50.627,60.207 L48.751,58.727 L46.876,57.234 L43.569,57.234 L41.212,57.234 L41.212,78.335 L48.616,78.335 L48.616,82.999 L19.0,82.999 L19.0,78.335 L26.367,78.335 L26.367,30.086 L19.0,30.086 L19.0,25.421 L51.861,25.421 L61.881,25.421 L67.335,29.456 L72.789,33.479 L72.789,40.883 L72.789,46.905 L68.915,50.397 L65.04,53.889 L57.217,54.889 Z M41.212,52.606 L46.259,52.606 L51.664,52.606 L54.576,49.682 L57.488,46.745 L57.488,41.315 L57.488,35.873 L54.576,32.986 L51.664,30.086 L46.259,30.086 L41.212,30.086 L41.212,52.606 Z M53.749,84.579 L53.749,80.474 L57.886,80.474 L76.966,33.91 L85.067,33.91 L104.179,80.474 L109.0,80.474 L109.0,84.579 L85.273,84.579 L85.273,80.474 L90.225,80.474 L86.055,70.125 L67.019,70.125 L62.773,80.474 L68.821,80.474 L68.821,84.579 L53.749,84.579 Z M68.68,66.02 L84.393,66.02 L76.586,46.637 L68.68,66.02 Z" fill="#c9a86a"/><circle cx="64" cy="112" r="7.5" fill="#c9a86a"/></svg>
